<?xml version="1.0" encoding="UTF-8"?>
<svg xmlns="http://www.w3.org/2000/svg" xmlns:xlink="http://www.w3.org/1999/xlink" viewBox="0 0 48 48" width="48px" height="48px">
<g id="surface63940261">
<path style=" stroke:none;fill-rule:nonzero;fill:rgb(80.000001%,80.000001%,80.000001%);fill-opacity:1;" d="M 24 24.238281 C 23.867188 24.238281 23.761719 24.132812 23.761719 24 C 23.761719 23.867188 23.867188 23.761719 24 23.761719 C 24.132812 23.761719 24.238281 23.867188 24.238281 24 C 24.238281 24.132812 24.132812 24.238281 24 24.238281 Z M 24 24.238281 "/>
<path style=" stroke:none;fill-rule:nonzero;fill:rgb(0%,0%,0%);fill-opacity:1;" d="M 24 0.398438 C 10.988281 0.398438 0.398438 10.988281 0.398438 24 C 0.398438 37.011719 10.988281 47.601562 24 47.601562 C 37.011719 47.601562 47.601562 37.011719 47.601562 24 C 47.601562 10.988281 37.011719 0.398438 24 0.398438 Z M 24 3.941406 C 35.101562 3.941406 44.058594 12.898438 44.058594 24 C 44.058594 33.046875 38.109375 40.664062 29.898438 43.175781 L 29.898438 37.140625 C 29.898438 34.886719 28.601562 32.953125 26.722656 31.992188 C 30.425781 31.285156 33.476562 29.191406 34.910156 26.367188 C 36.34375 23.546875 35.988281 20.34375 33.957031 17.769531 C 34.480469 16.160156 35.0625 13.332031 33.675781 11.109375 C 30.996094 11.109375 29.269531 12.945312 28.445312 14.085938 C 27.035156 13.625 25.523438 13.382812 24 13.378906 C 22.476562 13.382812 20.964844 13.621094 19.550781 14.082031 C 18.726562 12.9375 17 11.109375 14.324219 11.109375 C 12.730469 13.660156 13.714844 16.40625 14.246094 17.527344 C 12.074219 20.089844 11.613281 23.347656 13.015625 26.234375 C 14.414062 29.121094 17.5 31.277344 21.265625 32 C 19.722656 32.792969 18.570312 34.234375 18.214844 35.984375 L 16.664062 35.984375 C 15.132812 35.984375 14.539062 35.363281 13.710938 34.3125 C 12.894531 33.265625 12.015625 32.558594 10.960938 32.265625 C 10.394531 32.207031 10.011719 32.640625 10.507812 33.023438 C 12.179688 34.164062 12.296875 36.027344 12.96875 37.25 C 13.578125 38.347656 14.832031 39.339844 16.246094 39.339844 L 18.101562 39.339844 L 18.101562 43.175781 C 9.890625 40.664062 3.941406 33.046875 3.941406 24 C 3.941406 12.898438 12.898438 3.941406 24 3.941406 Z M 24 3.941406 "/>
</g>
</svg>
